<svg width="754" height="148" viewBox="0 0 754 148" fill="none" xmlns="http://www.w3.org/2000/svg">
<g clip-path="url(#clip0_1_62)">
<rect y="0.866669" width="753.058" height="147" rx="16.2431" fill="#FAA463"/>
<path d="M657.845 37.4136C657.845 37.4136 659.638 54.1438 666.62 61.1256C673.601 68.1074 690.332 69.8998 690.332 69.8998C690.332 69.8998 673.601 71.6923 666.62 78.674C659.638 85.6558 657.845 102.386 657.845 102.386C657.845 102.386 656.053 85.6558 649.071 78.674C642.089 71.6923 625.359 69.8998 625.359 69.8998C625.359 69.8998 642.089 68.1074 649.071 61.1256C656.053 54.1438 657.845 37.4136 657.845 37.4136Z" fill="white" fill-opacity="0.25"/>
<path d="M714.696 76.3971C714.696 76.3971 716.489 93.1272 723.47 100.109C730.452 107.091 747.182 108.883 747.182 108.883C747.182 108.883 730.452 110.676 723.47 117.657C716.489 124.639 714.696 141.369 714.696 141.369C714.696 141.369 712.904 124.639 705.922 117.657C698.94 110.676 682.21 108.883 682.21 108.883C682.21 108.883 698.94 107.091 705.922 100.109C712.904 93.1272 714.696 76.3971 714.696 76.3971Z" fill="white" fill-opacity="0.1"/>
<path d="M600.182 99.9496C600.182 99.9496 601.975 124.627 608.957 134.925C615.938 145.223 632.669 147.867 632.669 147.867C632.669 147.867 615.938 150.511 608.957 160.809C601.975 171.107 600.182 195.784 600.182 195.784C600.182 195.784 598.39 171.107 591.408 160.809C584.426 150.511 567.696 147.867 567.696 147.867C567.696 147.867 584.426 145.223 591.408 134.925C598.39 124.627 600.182 99.9496 600.182 99.9496Z" fill="white" fill-opacity="0.1"/>
<path d="M706.981 -47.0505C706.981 -47.0505 708.347 -22.3734 713.671 -12.0753C718.995 -1.77717 731.751 0.866669 731.751 0.866669C731.751 0.866669 718.995 3.51051 713.671 13.8086C708.347 24.1068 706.981 48.7838 706.981 48.7838C706.981 48.7838 705.614 24.1068 700.29 13.8086C694.967 3.51051 682.21 0.866669 682.21 0.866669C682.21 0.866669 694.967 -1.77717 700.29 -12.0753C705.614 -22.3734 706.981 -47.0505 706.981 -47.0505Z" fill="white" fill-opacity="0.1"/>
<path d="M600.588 17.1098C600.588 17.1098 601.955 29.6574 607.279 34.8937C612.602 40.1301 625.359 41.4744 625.359 41.4744C625.359 41.4744 612.602 42.8187 607.279 48.0551C601.955 53.2914 600.588 65.839 600.588 65.839C600.588 65.839 599.222 53.2914 593.898 48.0551C588.574 42.8187 575.818 41.4744 575.818 41.4744C575.818 41.4744 588.574 40.1301 593.898 34.8937C599.222 29.6574 600.588 17.1098 600.588 17.1098Z" fill="white" fill-opacity="0.1"/>
<path d="M20.3982 60.8667V46.6909H29.4796V48.8435H22.9662V52.6921H28.8566V54.8447H22.9662V60.8667H20.3982ZM34.6726 61.0812C33.9989 61.0812 33.3921 60.9613 32.8522 60.7213C32.3169 60.4767 31.8924 60.1168 31.5786 59.6415C31.2694 59.1662 31.1148 58.5802 31.1148 57.8834C31.1148 57.2835 31.2256 56.7874 31.4471 56.3952C31.6686 56.003 31.9708 55.6892 32.3538 55.4538C32.7368 55.2185 33.1683 55.0408 33.6482 54.9209C34.1327 54.7963 34.6334 54.7063 35.1502 54.6509C35.7732 54.5863 36.2785 54.5286 36.6661 54.4779C37.0537 54.4225 37.3352 54.3394 37.5106 54.2287C37.6905 54.1133 37.7805 53.9357 37.7805 53.6957V53.6542C37.7805 53.1327 37.6259 52.729 37.3167 52.4429C37.0076 52.1568 36.5623 52.0137 35.9808 52.0137C35.3671 52.0137 34.8803 52.1475 34.5203 52.4152C34.165 52.6828 33.9251 52.9989 33.8005 53.3635L31.4609 53.0312C31.6455 52.3852 31.9501 51.8453 32.3746 51.4115C32.7991 50.9731 33.3183 50.6455 33.932 50.4286C34.5457 50.2071 35.2241 50.0964 35.967 50.0964C36.4792 50.0964 36.9891 50.1564 37.4967 50.2764C38.0043 50.3963 38.4681 50.5948 38.888 50.8716C39.3079 51.1439 39.6448 51.5154 39.8986 51.986C40.157 52.4567 40.2862 53.0451 40.2862 53.7511V60.8667H37.8774V59.4062H37.7943C37.6421 59.7015 37.4275 59.9784 37.1506 60.2368C36.8784 60.4906 36.5346 60.6959 36.1193 60.8528C35.7086 61.0051 35.2264 61.0812 34.6726 61.0812ZM35.3233 59.2401C35.8263 59.2401 36.2623 59.1408 36.6315 58.9424C37.0006 58.7394 37.2844 58.4717 37.4829 58.1395C37.6859 57.8072 37.7874 57.445 37.7874 57.0528V55.7999C37.709 55.8645 37.5752 55.9245 37.386 55.9799C37.2014 56.0353 36.9937 56.0837 36.763 56.1253C36.5323 56.1668 36.3039 56.2037 36.0777 56.236C35.8516 56.2683 35.6555 56.296 35.4894 56.3191C35.1156 56.3698 34.7811 56.4529 34.4857 56.5682C34.1904 56.6836 33.9574 56.8451 33.7866 57.0528C33.6159 57.2558 33.5305 57.5188 33.5305 57.8419C33.5305 58.3033 33.699 58.6517 34.0358 58.887C34.3727 59.1224 34.8018 59.2401 35.3233 59.2401ZM51.2087 53.0451L48.9246 53.2942C48.86 53.0635 48.7469 52.8466 48.5854 52.6436C48.4285 52.4406 48.2162 52.2767 47.9486 52.1522C47.6809 52.0276 47.3533 51.9653 46.9657 51.9653C46.4443 51.9653 46.0059 52.0783 45.6506 52.3044C45.2999 52.5305 45.1268 52.8236 45.1314 53.1835C45.1268 53.4927 45.2399 53.7442 45.4706 53.938C45.7059 54.1318 46.0935 54.291 46.6334 54.4156L48.447 54.8032C49.4529 55.0201 50.2005 55.3639 50.6896 55.8345C51.1834 56.3052 51.4325 56.9213 51.4372 57.6827C51.4325 58.3518 51.2364 58.9424 50.8488 59.4546C50.4658 59.9622 49.9328 60.3591 49.2499 60.6452C48.5669 60.9313 47.7825 61.0743 46.8965 61.0743C45.5952 61.0743 44.5477 60.8021 43.754 60.2576C42.9603 59.7084 42.4873 58.9447 42.335 57.9664L44.7784 57.7311C44.8892 58.211 45.1245 58.5733 45.4844 58.8178C45.8444 59.0624 46.3127 59.1847 46.8896 59.1847C47.4848 59.1847 47.9624 59.0624 48.3224 58.8178C48.6869 58.5733 48.8692 58.271 48.8692 57.9111C48.8692 57.6065 48.7515 57.355 48.5162 57.1566C48.2854 56.9582 47.9255 56.8059 47.4364 56.6998L45.6229 56.3191C44.6031 56.1068 43.8486 55.7492 43.3594 55.2462C42.8703 54.7386 42.628 54.0972 42.6327 53.3219C42.628 52.6667 42.8057 52.0991 43.1656 51.6192C43.5302 51.1347 44.0355 50.7609 44.6815 50.4979C45.3322 50.2302 46.082 50.0964 46.9311 50.0964C48.177 50.0964 49.1576 50.3617 49.8728 50.8924C50.5927 51.4231 51.038 52.1406 51.2087 53.0451ZM58.8123 50.2348V52.1729H52.7004V50.2348H58.8123ZM54.2093 47.6876H56.715V57.6688C56.715 58.0057 56.7658 58.2641 56.8673 58.444C56.9734 58.6194 57.1119 58.7394 57.2826 58.804C57.4533 58.8686 57.6425 58.9009 57.8502 58.9009C58.0071 58.9009 58.1501 58.8893 58.2793 58.8663C58.4132 58.8432 58.5147 58.8224 58.5839 58.804L59.0061 60.7628C58.8723 60.809 58.6808 60.8597 58.4316 60.9151C58.187 60.9705 57.8871 61.0028 57.5318 61.012C56.9042 61.0305 56.3389 60.9359 55.8359 60.7282C55.333 60.516 54.9338 60.1883 54.6385 59.7453C54.3478 59.3023 54.2047 58.7486 54.2093 58.0841V47.6876ZM63.8496 58.9286L63.7596 59.69C63.695 60.2714 63.5797 60.8621 63.4136 61.4619C63.252 62.0664 63.0813 62.6225 62.9013 63.1301C62.7214 63.6377 62.576 64.0368 62.4653 64.3276H60.7764C60.841 64.0461 60.9286 63.6631 61.0394 63.1785C61.1548 62.694 61.2655 62.1495 61.3716 61.545C61.4778 60.9405 61.5493 60.3268 61.5862 59.7038L61.6347 58.9286H63.8496ZM71.1642 60.8667V46.6909H76.4801C77.5692 46.6909 78.4828 46.8801 79.2212 47.2585C79.9641 47.6369 80.5248 48.1675 80.9031 48.8505C81.2862 49.5288 81.4777 50.3202 81.4777 51.2246C81.4777 52.1337 81.2838 52.9228 80.8962 53.5919C80.5132 54.2564 79.9479 54.7709 79.2004 55.1354C78.4528 55.4954 77.5346 55.6753 76.4455 55.6753H72.6593V53.5434H76.0994C76.7362 53.5434 77.2577 53.4558 77.6638 53.2804C78.0698 53.1004 78.3698 52.8397 78.5636 52.4982C78.762 52.1522 78.8612 51.7276 78.8612 51.2246C78.8612 50.7217 78.762 50.2925 78.5636 49.9372C78.3652 49.5773 78.0629 49.305 77.6568 49.1204C77.2508 48.9312 76.727 48.8366 76.0856 48.8366H73.7322V60.8667H71.1642ZM78.4874 54.4433L81.9968 60.8667H79.1312L75.6841 54.4433H78.4874ZM88.2852 61.0743C87.2193 61.0743 86.2987 60.8528 85.5234 60.4098C84.7528 59.9622 84.1598 59.33 83.7445 58.5133C83.3292 57.6919 83.1216 56.7251 83.1216 55.613C83.1216 54.5194 83.3292 53.5596 83.7445 52.7336C84.1645 51.903 84.7505 51.2569 85.5027 50.7955C86.2548 50.3294 87.1385 50.0964 88.1537 50.0964C88.809 50.0964 89.4273 50.2025 90.0087 50.4148C90.5948 50.6224 91.1116 50.9455 91.5592 51.3838C92.0114 51.8222 92.3668 52.3806 92.6252 53.0589C92.8836 53.7326 93.0128 54.5356 93.0128 55.4677V56.236H84.2983V54.5471H90.6109C90.6063 54.0672 90.5025 53.6403 90.2995 53.2666C90.0964 52.8882 89.8126 52.5905 89.4481 52.3737C89.0881 52.1568 88.6682 52.0483 88.1883 52.0483C87.6761 52.0483 87.2262 52.1729 86.8386 52.4221C86.4509 52.6667 86.1487 52.9897 85.9318 53.3912C85.7195 53.788 85.6111 54.2241 85.6065 54.6994V56.1737C85.6065 56.7921 85.7195 57.3227 85.9457 57.7657C86.1718 58.2041 86.4879 58.541 86.8939 58.7763C87.3 59.007 87.7753 59.1224 88.3198 59.1224C88.6844 59.1224 89.0143 59.0716 89.3096 58.9701C89.605 58.864 89.8611 58.7094 90.078 58.5063C90.2948 58.3033 90.4587 58.0518 90.5694 57.7519L92.909 58.0149C92.7613 58.6332 92.4798 59.1731 92.0645 59.6346C91.6538 60.0914 91.1278 60.4467 90.4863 60.7005C89.8449 60.9497 89.1112 61.0743 88.2852 61.0743ZM97.6383 46.6909V60.8667H95.1326V46.6909H97.6383ZM100.215 60.8667V50.2348H102.721V60.8667H100.215ZM101.475 48.7259C101.078 48.7259 100.736 48.5944 100.45 48.3313C100.164 48.0637 100.021 47.743 100.021 47.3692C100.021 46.9908 100.164 46.6701 100.45 46.4071C100.736 46.1394 101.078 46.0056 101.475 46.0056C101.876 46.0056 102.218 46.1394 102.499 46.4071C102.785 46.6701 102.928 46.9908 102.928 47.3692C102.928 47.743 102.785 48.0637 102.499 48.3313C102.218 48.5944 101.876 48.7259 101.475 48.7259ZM108.357 61.0812C107.683 61.0812 107.076 60.9613 106.536 60.7213C106.001 60.4767 105.576 60.1168 105.263 59.6415C104.953 59.1662 104.799 58.5802 104.799 57.8834C104.799 57.2835 104.91 56.7874 105.131 56.3952C105.353 56.003 105.655 55.6892 106.038 55.4538C106.421 55.2185 106.852 55.0408 107.332 54.9209C107.817 54.7963 108.317 54.7063 108.834 54.6509C109.457 54.5863 109.962 54.5286 110.35 54.4779C110.738 54.4225 111.019 54.3394 111.195 54.2287C111.375 54.1133 111.465 53.9357 111.465 53.6957V53.6542C111.465 53.1327 111.31 52.729 111.001 52.4429C110.692 52.1568 110.246 52.0137 109.665 52.0137C109.051 52.0137 108.564 52.1475 108.204 52.4152C107.849 52.6828 107.609 52.9989 107.484 53.3635L105.145 53.0312C105.33 52.3852 105.634 51.8453 106.059 51.4115C106.483 50.9731 107.002 50.6455 107.616 50.4286C108.23 50.2071 108.908 50.0964 109.651 50.0964C110.163 50.0964 110.673 50.1564 111.181 50.2764C111.688 50.3963 112.152 50.5948 112.572 50.8716C112.992 51.1439 113.329 51.5154 113.583 51.986C113.841 52.4567 113.97 53.0451 113.97 53.7511V60.8667H111.561V59.4062H111.478C111.326 59.7015 111.111 59.9784 110.835 60.2368C110.562 60.4906 110.219 60.6959 109.803 60.8528C109.393 61.0051 108.91 61.0812 108.357 61.0812ZM109.007 59.2401C109.51 59.2401 109.946 59.1408 110.315 58.9424C110.685 58.7394 110.968 58.4717 111.167 58.1395C111.37 57.8072 111.471 57.445 111.471 57.0528V55.7999C111.393 55.8645 111.259 55.9245 111.07 55.9799C110.885 56.0353 110.678 56.0837 110.447 56.1253C110.216 56.1668 109.988 56.2037 109.762 56.236C109.536 56.2683 109.34 56.296 109.173 56.3191C108.8 56.3698 108.465 56.4529 108.17 56.5682C107.874 56.6836 107.641 56.8451 107.471 57.0528C107.3 57.2558 107.215 57.5188 107.215 57.8419C107.215 58.3033 107.383 58.6517 107.72 58.887C108.057 59.1224 108.486 59.2401 109.007 59.2401ZM116.6 60.8667V46.6909H119.106V51.993H119.21C119.339 51.7345 119.521 51.46 119.757 51.1693C119.992 50.8739 120.311 50.6224 120.712 50.4148C121.113 50.2025 121.626 50.0964 122.249 50.0964C123.07 50.0964 123.811 50.3064 124.471 50.7263C125.135 51.1416 125.661 51.7576 126.049 52.5744C126.441 53.3865 126.637 54.3833 126.637 55.5646C126.637 56.7321 126.446 57.7242 126.063 58.541C125.68 59.3577 125.158 59.9807 124.498 60.4098C123.838 60.839 123.091 61.0536 122.256 61.0536C121.646 61.0536 121.141 60.952 120.74 60.749C120.338 60.546 120.015 60.3014 119.771 60.0153C119.531 59.7246 119.344 59.45 119.21 59.1916H119.065V60.8667H116.6ZM119.058 55.5507C119.058 56.2383 119.155 56.8405 119.348 57.3573C119.547 57.8742 119.831 58.2779 120.2 58.5686C120.574 58.8547 121.026 58.9978 121.556 58.9978C122.11 58.9978 122.574 58.8501 122.948 58.5548C123.322 58.2549 123.603 57.8465 123.792 57.3296C123.986 56.8082 124.083 56.2152 124.083 55.5507C124.083 54.8909 123.988 54.3048 123.799 53.7926C123.61 53.2804 123.328 52.8789 122.955 52.5882C122.581 52.2975 122.115 52.1522 121.556 52.1522C121.021 52.1522 120.567 52.2929 120.193 52.5744C119.819 52.8559 119.535 53.2504 119.341 53.758C119.152 54.2656 119.058 54.8632 119.058 55.5507ZM131.273 46.6909V60.8667H128.767V46.6909H131.273ZM138.556 61.0743C137.49 61.0743 136.57 60.8528 135.795 60.4098C135.024 59.9622 134.431 59.33 134.016 58.5133C133.6 57.6919 133.393 56.7251 133.393 55.613C133.393 54.5194 133.6 53.5596 134.016 52.7336C134.436 51.903 135.022 51.2569 135.774 50.7955C136.526 50.3294 137.41 50.0964 138.425 50.0964C139.08 50.0964 139.698 50.2025 140.28 50.4148C140.866 50.6224 141.383 50.9455 141.83 51.3838C142.283 51.8222 142.638 52.3806 142.896 53.0589C143.155 53.7326 143.284 54.5356 143.284 55.4677V56.236H134.569V54.5471H140.882C140.877 54.0672 140.774 53.6403 140.571 53.2666C140.368 52.8882 140.084 52.5905 139.719 52.3737C139.359 52.1568 138.939 52.0483 138.459 52.0483C137.947 52.0483 137.497 52.1729 137.11 52.4221C136.722 52.6667 136.42 52.9897 136.203 53.3912C135.991 53.788 135.882 54.2241 135.878 54.6994V56.1737C135.878 56.7921 135.991 57.3227 136.217 57.7657C136.443 58.2041 136.759 58.541 137.165 58.7763C137.571 59.007 138.046 59.1224 138.591 59.1224C138.955 59.1224 139.285 59.0716 139.581 58.9701C139.876 58.864 140.132 58.7094 140.349 58.5063C140.566 58.3033 140.73 58.0518 140.841 57.7519L143.18 58.0149C143.032 58.6332 142.751 59.1731 142.336 59.6346C141.925 60.0914 141.399 60.4467 140.757 60.7005C140.116 60.9497 139.382 61.0743 138.556 61.0743ZM148.345 58.9286L148.255 59.69C148.191 60.2714 148.075 60.8621 147.909 61.4619C147.748 62.0664 147.577 62.6225 147.397 63.1301C147.217 63.6377 147.072 64.0368 146.961 64.3276H145.272C145.337 64.0461 145.424 63.6631 145.535 63.1785C145.651 62.694 145.761 62.1495 145.867 61.545C145.974 60.9405 146.045 60.3268 146.082 59.7038L146.13 58.9286H148.345ZM158.609 61.0812C157.935 61.0812 157.328 60.9613 156.788 60.7213C156.253 60.4767 155.828 60.1168 155.515 59.6415C155.205 59.1662 155.051 58.5802 155.051 57.8834C155.051 57.2835 155.162 56.7874 155.383 56.3952C155.605 56.003 155.907 55.6892 156.29 55.4538C156.673 55.2185 157.104 55.0408 157.584 54.9209C158.069 54.7963 158.569 54.7063 159.086 54.6509C159.709 54.5863 160.215 54.5286 160.602 54.4779C160.99 54.4225 161.271 54.3394 161.447 54.2287C161.627 54.1133 161.717 53.9357 161.717 53.6957V53.6542C161.717 53.1327 161.562 52.729 161.253 52.4429C160.944 52.1568 160.498 52.0137 159.917 52.0137C159.303 52.0137 158.816 52.1475 158.456 52.4152C158.101 52.6828 157.861 52.9989 157.737 53.3635L155.397 53.0312C155.582 52.3852 155.886 51.8453 156.311 51.4115C156.735 50.9731 157.254 50.6455 157.868 50.4286C158.482 50.2071 159.16 50.0964 159.903 50.0964C160.415 50.0964 160.925 50.1564 161.433 50.2764C161.94 50.3963 162.404 50.5948 162.824 50.8716C163.244 51.1439 163.581 51.5154 163.835 51.986C164.093 52.4567 164.222 53.0451 164.222 53.7511V60.8667H161.813V59.4062H161.73C161.578 59.7015 161.364 59.9784 161.087 60.2368C160.814 60.4906 160.471 60.6959 160.055 60.8528C159.645 61.0051 159.162 61.0812 158.609 61.0812ZM159.259 59.2401C159.762 59.2401 160.198 59.1408 160.568 58.9424C160.937 58.7394 161.221 58.4717 161.419 58.1395C161.622 57.8072 161.723 57.445 161.723 57.0528V55.7999C161.645 55.8645 161.511 55.9245 161.322 55.9799C161.137 56.0353 160.93 56.0837 160.699 56.1253C160.468 56.1668 160.24 56.2037 160.014 56.236C159.788 56.2683 159.592 56.296 159.425 56.3191C159.052 56.3698 158.717 56.4529 158.422 56.5682C158.126 56.6836 157.893 56.8451 157.723 57.0528C157.552 57.2558 157.467 57.5188 157.467 57.8419C157.467 58.3033 157.635 58.6517 157.972 58.887C158.309 59.1224 158.738 59.2401 159.259 59.2401ZM169.247 54.6371V60.8667H166.742V50.2348H169.137V52.0414H169.261C169.506 51.4461 169.896 50.9731 170.431 50.6224C170.971 50.2717 171.638 50.0964 172.431 50.0964C173.165 50.0964 173.804 50.2533 174.349 50.5671C174.898 50.8809 175.322 51.3354 175.622 51.9307C175.927 52.5259 176.077 53.2481 176.072 54.0972V60.8667H173.567V54.4848C173.567 53.7742 173.382 53.2181 173.013 52.8166C172.648 52.4152 172.143 52.2145 171.497 52.2145C171.059 52.2145 170.669 52.3114 170.327 52.5052C169.99 52.6944 169.725 52.9689 169.531 53.3289C169.342 53.6888 169.247 54.1249 169.247 54.6371ZM182.565 61.0536C181.73 61.0536 180.982 60.839 180.322 60.4098C179.662 59.9807 179.141 59.3577 178.758 58.541C178.375 57.7242 178.183 56.7321 178.183 55.5646C178.183 54.3833 178.377 53.3865 178.765 52.5744C179.157 51.7576 179.685 51.1416 180.35 50.7263C181.014 50.3064 181.755 50.0964 182.572 50.0964C183.195 50.0964 183.707 50.2025 184.109 50.4148C184.51 50.6224 184.828 50.8739 185.064 51.1693C185.299 51.46 185.481 51.7345 185.611 51.993H185.714V46.6909H188.227V60.8667H185.763V59.1916H185.611C185.481 59.45 185.294 59.7246 185.05 60.0153C184.805 60.3014 184.482 60.546 184.081 60.749C183.679 60.952 183.174 61.0536 182.565 61.0536ZM183.264 58.9978C183.795 58.9978 184.247 58.8547 184.621 58.5686C184.994 58.2779 185.278 57.8742 185.472 57.3573C185.666 56.8405 185.763 56.2383 185.763 55.5507C185.763 54.8632 185.666 54.2656 185.472 53.758C185.283 53.2504 185.001 52.8559 184.628 52.5744C184.258 52.2929 183.804 52.1522 183.264 52.1522C182.706 52.1522 182.24 52.2975 181.866 52.5882C181.492 52.8789 181.211 53.2804 181.021 53.7926C180.832 54.3048 180.738 54.8909 180.738 55.5507C180.738 56.2152 180.832 56.8082 181.021 57.3296C181.215 57.8465 181.499 58.2549 181.873 58.5548C182.251 58.8501 182.715 58.9978 183.264 58.9978ZM197.663 60.8667H194.922L199.913 46.6909H203.083L208.08 60.8667H205.339L201.553 49.598H201.442L197.663 60.8667ZM197.753 55.3085H205.229V57.3712H197.753V55.3085ZM212.342 46.6909V60.8667H209.837V46.6909H212.342ZM217.113 60.8667L214.109 50.2348H216.663L218.532 57.7103H218.629L220.54 50.2348H223.066L224.976 57.6688H225.08L226.921 50.2348H229.482L226.471 60.8667H223.862L221.869 53.6819H221.723L219.73 60.8667H217.113ZM234.291 61.0812C233.618 61.0812 233.011 60.9613 232.471 60.7213C231.936 60.4767 231.511 60.1168 231.197 59.6415C230.888 59.1662 230.734 58.5802 230.734 57.8834C230.734 57.2835 230.844 56.7874 231.066 56.3952C231.287 56.003 231.59 55.6892 231.973 55.4538C232.356 55.2185 232.787 55.0408 233.267 54.9209C233.751 54.7963 234.252 54.7063 234.769 54.6509C235.392 54.5863 235.897 54.5286 236.285 54.4779C236.672 54.4225 236.954 54.3394 237.129 54.2287C237.309 54.1133 237.399 53.9357 237.399 53.6957V53.6542C237.399 53.1327 237.245 52.729 236.935 52.4429C236.626 52.1568 236.181 52.0137 235.6 52.0137C234.986 52.0137 234.499 52.1475 234.139 52.4152C233.784 52.6828 233.544 52.9989 233.419 53.3635L231.08 53.0312C231.264 52.3852 231.569 51.8453 231.993 51.4115C232.418 50.9731 232.937 50.6455 233.551 50.4286C234.164 50.2071 234.843 50.0964 235.586 50.0964C236.098 50.0964 236.608 50.1564 237.115 50.2764C237.623 50.3963 238.087 50.5948 238.507 50.8716C238.927 51.1439 239.264 51.5154 239.517 51.986C239.776 52.4567 239.905 53.0451 239.905 53.7511V60.8667H237.496V59.4062H237.413C237.261 59.7015 237.046 59.9784 236.769 60.2368C236.497 60.4906 236.153 60.6959 235.738 60.8528C235.327 61.0051 234.845 61.0812 234.291 61.0812ZM234.942 59.2401C235.445 59.2401 235.881 59.1408 236.25 58.9424C236.619 58.7394 236.903 58.4717 237.102 58.1395C237.305 57.8072 237.406 57.445 237.406 57.0528V55.7999C237.328 55.8645 237.194 55.9245 237.005 55.9799C236.82 56.0353 236.612 56.0837 236.382 56.1253C236.151 56.1668 235.923 56.2037 235.696 56.236C235.47 56.2683 235.274 56.296 235.108 56.3191C234.734 56.3698 234.4 56.4529 234.104 56.5682C233.809 56.6836 233.576 56.8451 233.405 57.0528C233.235 57.2558 233.149 57.5188 233.149 57.8419C233.149 58.3033 233.318 58.6517 233.655 58.887C233.991 59.1224 234.421 59.2401 234.942 59.2401ZM243.601 64.8536C243.26 64.8536 242.944 64.8259 242.653 64.7705C242.367 64.7198 242.138 64.6598 241.968 64.5906L242.549 62.6386C242.914 62.7448 243.239 62.7955 243.525 62.7909C243.811 62.7863 244.063 62.6963 244.279 62.521C244.501 62.3502 244.688 62.0641 244.84 61.6627L245.055 61.0882L241.199 50.2348H243.857L246.308 58.2641H246.418L248.876 50.2348H251.54L247.284 62.1541C247.085 62.7171 246.822 63.1993 246.494 63.6008C246.167 64.0068 245.765 64.316 245.29 64.5283C244.819 64.7452 244.256 64.8536 243.601 64.8536ZM261.677 53.0451L259.393 53.2942C259.329 53.0635 259.216 52.8466 259.054 52.6436C258.897 52.4406 258.685 52.2767 258.417 52.1522C258.15 52.0276 257.822 51.9653 257.434 51.9653C256.913 51.9653 256.474 52.0783 256.119 52.3044C255.768 52.5305 255.595 52.8236 255.6 53.1835C255.595 53.4927 255.708 53.7442 255.939 53.938C256.175 54.1318 256.562 54.291 257.102 54.4156L258.916 54.8032C259.922 55.0201 260.669 55.3639 261.158 55.8345C261.652 56.3052 261.901 56.9213 261.906 57.6827C261.901 58.3518 261.705 58.9424 261.317 59.4546C260.934 59.9622 260.401 60.3591 259.718 60.6452C259.036 60.9313 258.251 61.0743 257.365 61.0743C256.064 61.0743 255.016 60.8021 254.223 60.2576C253.429 59.7084 252.956 58.9447 252.804 57.9664L255.247 57.7311C255.358 58.211 255.593 58.5733 255.953 58.8178C256.313 59.0624 256.781 59.1847 257.358 59.1847C257.953 59.1847 258.431 59.0624 258.791 58.8178C259.156 58.5733 259.338 58.271 259.338 57.9111C259.338 57.6065 259.22 57.355 258.985 57.1566C258.754 56.9582 258.394 56.8059 257.905 56.6998L256.091 56.3191C255.072 56.1068 254.317 55.7492 253.828 55.2462C253.339 54.7386 253.097 54.0972 253.101 53.3219C253.097 52.6667 253.274 52.0991 253.634 51.6192C253.999 51.1347 254.504 50.7609 255.15 50.4979C255.801 50.2302 256.551 50.0964 257.4 50.0964C258.646 50.0964 259.626 50.3617 260.341 50.8924C261.061 51.4231 261.507 52.1406 261.677 53.0451ZM281.584 53.7788C281.584 55.3062 281.298 56.6144 280.726 57.7034C280.158 58.7878 279.383 59.6184 278.4 60.1953C277.422 60.7721 276.312 61.0605 275.071 61.0605C273.83 61.0605 272.718 60.7721 271.735 60.1953C270.756 59.6138 269.981 58.7809 269.409 57.6965C268.841 56.6075 268.558 55.3016 268.558 53.7788C268.558 52.2514 268.841 50.9455 269.409 49.861C269.981 48.772 270.756 47.9391 271.735 47.3623C272.718 46.7855 273.83 46.4971 275.071 46.4971C276.312 46.4971 277.422 46.7855 278.4 47.3623C279.383 47.9391 280.158 48.772 280.726 49.861C281.298 50.9455 281.584 52.2514 281.584 53.7788ZM279.003 53.7788C279.003 52.7036 278.834 51.7968 278.497 51.0585C278.165 50.3156 277.704 49.7549 277.113 49.3765C276.522 48.9935 275.842 48.802 275.071 48.802C274.3 48.802 273.62 48.9935 273.029 49.3765C272.438 49.7549 271.975 50.3156 271.638 51.0585C271.306 51.7968 271.139 52.7036 271.139 53.7788C271.139 54.854 271.306 55.763 271.638 56.506C271.975 57.2443 272.438 57.8049 273.029 58.1879C273.62 58.5663 274.3 58.7555 275.071 58.7555C275.842 58.7555 276.522 58.5663 277.113 58.1879C277.704 57.8049 278.165 57.2443 278.497 56.506C278.834 55.763 279.003 54.854 279.003 53.7788ZM286.407 54.6371V60.8667H283.901V50.2348H286.296V52.0414H286.421C286.666 51.4461 287.055 50.9731 287.591 50.6224C288.131 50.2717 288.797 50.0964 289.591 50.0964C290.325 50.0964 290.964 50.2533 291.508 50.5671C292.058 50.8809 292.482 51.3354 292.782 51.9307C293.087 52.5259 293.237 53.2481 293.232 54.0972V60.8667H290.726V54.4848C290.726 53.7742 290.542 53.2181 290.173 52.8166C289.808 52.4152 289.303 52.2145 288.657 52.2145C288.218 52.2145 287.828 52.3114 287.487 52.5052C287.15 52.6944 286.885 52.9689 286.691 53.3289C286.502 53.6888 286.407 54.1249 286.407 54.6371ZM301.088 50.2348V52.1729H294.976V50.2348H301.088ZM296.485 47.6876H298.991V57.6688C298.991 58.0057 299.042 58.2641 299.143 58.444C299.249 58.6194 299.388 58.7394 299.558 58.804C299.729 58.8686 299.918 58.9009 300.126 58.9009C300.283 58.9009 300.426 58.8893 300.555 58.8663C300.689 58.8432 300.791 58.8224 300.86 58.804L301.282 60.7628C301.148 60.809 300.957 60.8597 300.708 60.9151C300.463 60.9705 300.163 61.0028 299.808 61.012C299.18 61.0305 298.615 60.9359 298.112 60.7282C297.609 60.516 297.21 60.1883 296.914 59.7453C296.624 59.3023 296.481 58.7486 296.485 58.0841V47.6876ZM303.184 60.8667V50.2348H305.689V60.8667H303.184ZM304.444 48.7259C304.047 48.7259 303.705 48.5944 303.419 48.3313C303.133 48.0637 302.99 47.743 302.99 47.3692C302.99 46.9908 303.133 46.6701 303.419 46.4071C303.705 46.1394 304.047 46.0056 304.444 46.0056C304.845 46.0056 305.186 46.1394 305.468 46.4071C305.754 46.6701 305.897 46.9908 305.897 47.3692C305.897 47.743 305.754 48.0637 305.468 48.3313C305.186 48.5944 304.845 48.7259 304.444 48.7259ZM308.266 60.8667V50.2348H310.661V52.0414H310.786C311.007 51.4323 311.374 50.957 311.886 50.6155C312.398 50.2694 313.01 50.0964 313.72 50.0964C314.44 50.0964 315.047 50.2717 315.541 50.6224C316.039 50.9685 316.39 51.4415 316.593 52.0414H316.704C316.939 51.4508 317.336 50.9801 317.894 50.6294C318.457 50.274 319.124 50.0964 319.895 50.0964C320.873 50.0964 321.671 50.4056 322.29 51.0239C322.908 51.6423 323.217 52.5444 323.217 53.7303V60.8667H320.705V54.1179C320.705 53.4581 320.529 52.9758 320.178 52.6713C319.828 52.3621 319.399 52.2075 318.891 52.2075C318.287 52.2075 317.814 52.3967 317.472 52.7751C317.135 53.1489 316.967 53.6357 316.967 54.2356V60.8667H314.51V54.0141C314.51 53.465 314.343 53.0266 314.011 52.699C313.684 52.3713 313.254 52.2075 312.724 52.2075C312.364 52.2075 312.036 52.2998 311.741 52.4844C311.445 52.6644 311.21 52.9205 311.035 53.2527C310.859 53.5803 310.772 53.9634 310.772 54.4017V60.8667H308.266ZM330.466 61.0743C329.4 61.0743 328.479 60.8528 327.704 60.4098C326.934 59.9622 326.341 59.33 325.925 58.5133C325.51 57.6919 325.302 56.7251 325.302 55.613C325.302 54.5194 325.51 53.5596 325.925 52.7336C326.345 51.903 326.931 51.2569 327.683 50.7955C328.436 50.3294 329.319 50.0964 330.334 50.0964C330.99 50.0964 331.608 50.2025 332.189 50.4148C332.776 50.6224 333.292 50.9455 333.74 51.3838C334.192 51.8222 334.547 52.3806 334.806 53.0589C335.064 53.7326 335.194 54.5356 335.194 55.4677V56.236H326.479V54.5471H332.792C332.787 54.0672 332.683 53.6403 332.48 53.2666C332.277 52.8882 331.993 52.5905 331.629 52.3737C331.269 52.1568 330.849 52.0483 330.369 52.0483C329.857 52.0483 329.407 52.1729 329.019 52.4221C328.632 52.6667 328.329 52.9897 328.113 53.3912C327.9 53.788 327.792 54.2241 327.787 54.6994V56.1737C327.787 56.7921 327.9 57.3227 328.126 57.7657C328.352 58.2041 328.669 58.541 329.075 58.7763C329.481 59.007 329.956 59.1224 330.501 59.1224C330.865 59.1224 331.195 59.0716 331.49 58.9701C331.786 58.864 332.042 58.7094 332.259 58.5063C332.476 58.3033 332.639 58.0518 332.75 57.7519L335.09 58.0149C334.942 58.6332 334.661 59.1731 334.245 59.6346C333.835 60.0914 333.308 60.4467 332.667 60.7005C332.026 60.9497 331.292 61.0743 330.466 61.0743ZM25.6726 74.2348V76.1729H19.3876V74.2348H25.6726ZM20.9589 84.8667V73.2312C20.9589 72.5159 21.1065 71.9206 21.4019 71.4454C21.7018 70.9701 22.1033 70.6147 22.6062 70.3794C23.1092 70.1441 23.6676 70.0264 24.2813 70.0264C24.7151 70.0264 25.1004 70.061 25.4372 70.1302C25.7741 70.1994 26.0233 70.2617 26.1848 70.3171L25.6864 72.2552C25.5803 72.2229 25.4465 72.1906 25.285 72.1583C25.1235 72.1214 24.9435 72.1029 24.7451 72.1029C24.279 72.1029 23.9491 72.216 23.7553 72.4421C23.5661 72.6636 23.4715 72.982 23.4715 73.3973V84.8667H20.9589ZM31.8728 85.0743C30.8345 85.0743 29.9347 84.8459 29.1733 84.3891C28.4119 83.9322 27.8212 83.2931 27.4013 82.4717C26.986 81.6504 26.7783 80.6905 26.7783 79.5923C26.7783 78.494 26.986 77.5319 27.4013 76.7059C27.8212 75.8799 28.4119 75.2385 29.1733 74.7816C29.9347 74.3248 30.8345 74.0964 31.8728 74.0964C32.911 74.0964 33.8109 74.3248 34.5723 74.7816C35.3337 75.2385 35.922 75.8799 36.3373 76.7059C36.7572 77.5319 36.9672 78.494 36.9672 79.5923C36.9672 80.6905 36.7572 81.6504 36.3373 82.4717C35.922 83.2931 35.3337 83.9322 34.5723 84.3891C33.8109 84.8459 32.911 85.0743 31.8728 85.0743ZM31.8866 83.067C32.4496 83.067 32.9203 82.9124 33.2987 82.6032C33.677 82.2895 33.9585 81.8695 34.1431 81.3435C34.3323 80.8174 34.4269 80.2314 34.4269 79.5854C34.4269 78.9347 34.3323 78.3464 34.1431 77.8203C33.9585 77.2896 33.677 76.8674 33.2987 76.5536C32.9203 76.2398 32.4496 76.0829 31.8866 76.0829C31.3098 76.0829 30.8299 76.2398 30.4469 76.5536C30.0685 76.8674 29.7847 77.2896 29.5955 77.8203C29.4109 78.3464 29.3186 78.9347 29.3186 79.5854C29.3186 80.2314 29.4109 80.8174 29.5955 81.3435C29.7847 81.8695 30.0685 82.2895 30.4469 82.6032C30.8299 82.9124 31.3098 83.067 31.8866 83.067ZM39.0939 84.8667V74.2348H41.5234V76.0068H41.6342C41.828 75.3931 42.1603 74.9201 42.6309 74.5878C43.1062 74.251 43.6484 74.0825 44.2575 74.0825C44.396 74.0825 44.5506 74.0895 44.7213 74.1033C44.8967 74.1125 45.042 74.1287 45.1574 74.1518V76.4567C45.0512 76.4198 44.8828 76.3875 44.6521 76.3598C44.426 76.3275 44.2068 76.3114 43.9945 76.3114C43.5377 76.3114 43.127 76.4106 42.7624 76.609C42.4025 76.8028 42.1187 77.0728 41.9111 77.4188C41.7034 77.7649 41.5996 78.1641 41.5996 78.6163V84.8667H39.0939ZM51.7677 84.8667V70.6909H60.9875V72.8435H54.3357V76.6921H60.5099V78.8447H54.3357V82.714H61.0428V84.8667H51.7677ZM72.9933 74.2348L69.2071 84.8667H66.4384L62.6522 74.2348H65.324L67.7674 82.1326H67.8781L70.3284 74.2348H72.9933ZM79.0723 85.0743C78.0064 85.0743 77.0858 84.8528 76.3106 84.4098C75.5399 83.9622 74.947 83.33 74.5317 82.5133C74.1163 81.6919 73.9087 80.7251 73.9087 79.613C73.9087 78.5194 74.1163 77.5596 74.5317 76.7336C74.9516 75.903 75.5376 75.2569 76.2898 74.7955C77.042 74.3294 77.9256 74.0964 78.9408 74.0964C79.5961 74.0964 80.2144 74.2025 80.7959 74.4148C81.3819 74.6224 81.8987 74.9455 82.3463 75.3838C82.7986 75.8222 83.1539 76.3806 83.4123 77.0589C83.6707 77.7326 83.7999 78.5356 83.7999 79.4677V80.236H75.0854V78.5471H81.3981C81.3934 78.0672 81.2896 77.6403 81.0866 77.2666C80.8835 76.8882 80.5997 76.5905 80.2352 76.3737C79.8753 76.1568 79.4553 76.0483 78.9754 76.0483C78.4632 76.0483 78.0133 76.1729 77.6257 76.4221C77.2381 76.6667 76.9358 76.9897 76.7189 77.3912C76.5067 77.788 76.3982 78.2241 76.3936 78.6994V80.1737C76.3936 80.7921 76.5067 81.3227 76.7328 81.7657C76.9589 82.2041 77.275 82.541 77.6811 82.7763C78.0871 83.007 78.5624 83.1224 79.1069 83.1224C79.4715 83.1224 79.8014 83.0716 80.0968 82.9701C80.3921 82.864 80.6482 82.7094 80.8651 82.5063C81.082 82.3033 81.2458 82.0518 81.3565 81.7519L83.6961 82.0149C83.5484 82.6332 83.2669 83.1731 82.8516 83.6346C82.4409 84.0914 81.9149 84.4467 81.2735 84.7005C80.632 84.9497 79.8983 85.0743 79.0723 85.0743ZM85.9197 84.8667V74.2348H88.3492V76.0068H88.46C88.6538 75.3931 88.986 74.9201 89.4567 74.5878C89.932 74.251 90.4742 74.0825 91.0833 74.0825C91.2218 74.0825 91.3764 74.0895 91.5471 74.1033C91.7225 74.1125 91.8678 74.1287 91.9832 74.1518V76.4567C91.877 76.4198 91.7086 76.3875 91.4779 76.3598C91.2518 76.3275 91.0326 76.3114 90.8203 76.3114C90.3635 76.3114 89.9528 76.4106 89.5882 76.609C89.2283 76.8028 88.9445 77.0728 88.7369 77.4188C88.5292 77.7649 88.4254 78.1641 88.4254 78.6163V84.8667H85.9197ZM95.5289 88.8536C95.1874 88.8536 94.8713 88.8259 94.5806 88.7705C94.2945 88.7198 94.0661 88.6598 93.8953 88.5906L94.4767 86.6386C94.8413 86.7448 95.1666 86.7955 95.4527 86.7909C95.7388 86.7863 95.9903 86.6963 96.2072 86.521C96.4287 86.3502 96.6156 86.0641 96.7679 85.6627L96.9824 85.0882L93.127 74.2348H95.785L98.2353 82.2641H98.346L100.803 74.2348H103.468L99.2112 86.1541C99.0128 86.7171 98.7498 87.1993 98.4222 87.6008C98.0945 88.0068 97.6931 88.316 97.2178 88.5283C96.7471 88.7452 96.1841 88.8536 95.5289 88.8536ZM114.951 84.8667H110.148V70.6909H115.048C116.456 70.6909 117.665 70.9747 118.675 71.5423C119.69 72.1052 120.47 72.9151 121.015 73.9718C121.559 75.0285 121.832 76.2929 121.832 77.7649C121.832 79.2416 121.557 80.5106 121.008 81.5719C120.463 82.6332 119.677 83.4477 118.648 84.0153C117.623 84.5829 116.391 84.8667 114.951 84.8667ZM112.716 82.6448H114.827C115.814 82.6448 116.638 82.4648 117.298 82.1049C117.958 81.7403 118.454 81.1981 118.786 80.4783C119.118 79.7538 119.284 78.8493 119.284 77.7649C119.284 76.6805 119.118 75.7807 118.786 75.0654C118.454 74.3456 117.962 73.808 117.312 73.4527C116.666 73.0927 115.863 72.9128 114.903 72.9128H112.716V82.6448ZM128.868 85.0743C127.802 85.0743 126.881 84.8528 126.106 84.4098C125.335 83.9622 124.742 83.33 124.327 82.5133C123.912 81.6919 123.704 80.7251 123.704 79.613C123.704 78.5194 123.912 77.5596 124.327 76.7336C124.747 75.903 125.333 75.2569 126.085 74.7955C126.837 74.3294 127.721 74.0964 128.736 74.0964C129.391 74.0964 130.01 74.2025 130.591 74.4148C131.177 74.6224 131.694 74.9455 132.142 75.3838C132.594 75.8222 132.949 76.3806 133.208 77.0589C133.466 77.7326 133.595 78.5356 133.595 79.4677V80.236H124.881V78.5471H131.193C131.189 78.0672 131.085 77.6403 130.882 77.2666C130.679 76.8882 130.395 76.5905 130.03 76.3737C129.67 76.1568 129.251 76.0483 128.771 76.0483C128.258 76.0483 127.809 76.1729 127.421 76.4221C127.033 76.6667 126.731 76.9897 126.514 77.3912C126.302 77.788 126.193 78.2241 126.189 78.6994V80.1737C126.189 80.7921 126.302 81.3227 126.528 81.7657C126.754 82.2041 127.07 82.541 127.476 82.7763C127.882 83.007 128.358 83.1224 128.902 83.1224C129.267 83.1224 129.597 83.0716 129.892 82.9701C130.187 82.864 130.443 82.7094 130.66 82.5063C130.877 82.3033 131.041 82.0518 131.152 81.7519L133.491 82.0149C133.344 82.6332 133.062 83.1731 132.647 83.6346C132.236 84.0914 131.71 84.4467 131.069 84.7005C130.427 84.9497 129.694 85.0743 128.868 85.0743ZM138.221 70.6909V84.8667H135.715V70.6909H138.221ZM140.797 84.8667V74.2348H143.303V84.8667H140.797ZM142.057 72.7259C141.66 72.7259 141.319 72.5944 141.033 72.3313C140.746 72.0637 140.603 71.743 140.603 71.3692C140.603 70.9908 140.746 70.6701 141.033 70.4071C141.319 70.1394 141.66 70.0056 142.057 70.0056C142.458 70.0056 142.8 70.1394 143.081 70.4071C143.368 70.6701 143.511 70.9908 143.511 71.3692C143.511 71.743 143.368 72.0637 143.081 72.3313C142.8 72.5944 142.458 72.7259 142.057 72.7259ZM155.376 74.2348L151.59 84.8667H148.821L145.035 74.2348H147.707L150.15 82.1326H150.261L152.711 74.2348H155.376ZM161.455 85.0743C160.389 85.0743 159.469 84.8528 158.693 84.4098C157.923 83.9622 157.33 83.33 156.915 82.5133C156.499 81.6919 156.292 80.7251 156.292 79.613C156.292 78.5194 156.499 77.5596 156.915 76.7336C157.335 75.903 157.921 75.2569 158.673 74.7955C159.425 74.3294 160.309 74.0964 161.324 74.0964C161.979 74.0964 162.597 74.2025 163.179 74.4148C163.765 74.6224 164.282 74.9455 164.729 75.3838C165.182 75.8222 165.537 76.3806 165.795 77.0589C166.054 77.7326 166.183 78.5356 166.183 79.4677V80.236H157.468V78.5471H163.781C163.776 78.0672 163.673 77.6403 163.47 77.2666C163.266 76.8882 162.983 76.5905 162.618 76.3737C162.258 76.1568 161.838 76.0483 161.358 76.0483C160.846 76.0483 160.396 76.1729 160.009 76.4221C159.621 76.6667 159.319 76.9897 159.102 77.3912C158.89 77.788 158.781 78.2241 158.777 78.6994V80.1737C158.777 80.7921 158.89 81.3227 159.116 81.7657C159.342 82.2041 159.658 82.541 160.064 82.7763C160.47 83.007 160.945 83.1224 161.49 83.1224C161.854 83.1224 162.184 83.0716 162.48 82.9701C162.775 82.864 163.031 82.7094 163.248 82.5063C163.465 82.3033 163.629 82.0518 163.739 81.7519L166.079 82.0149C165.931 82.6332 165.65 83.1731 165.235 83.6346C164.824 84.0914 164.298 84.4467 163.656 84.7005C163.015 84.9497 162.281 85.0743 161.455 85.0743ZM168.303 84.8667V74.2348H170.732V76.0068H170.843C171.037 75.3931 171.369 74.9201 171.84 74.5878C172.315 74.251 172.857 74.0825 173.466 74.0825C173.605 74.0825 173.759 74.0895 173.93 74.1033C174.105 74.1125 174.251 74.1287 174.366 74.1518V76.4567C174.26 76.4198 174.092 76.3875 173.861 76.3598C173.635 76.3275 173.416 76.3114 173.203 76.3114C172.746 76.3114 172.336 76.4106 171.971 76.609C171.611 76.8028 171.327 77.0728 171.12 77.4188C170.912 77.7649 170.808 78.1641 170.808 78.6163V84.8667H168.303ZM177.912 88.8536C177.57 88.8536 177.254 88.8259 176.964 88.7705C176.677 88.7198 176.449 88.6598 176.278 88.5906L176.86 86.6386C177.224 86.7448 177.55 86.7955 177.836 86.7909C178.122 86.7863 178.373 86.6963 178.59 86.521C178.812 86.3502 178.999 86.0641 179.151 85.6627L179.365 85.0882L175.51 74.2348H178.168L180.618 82.2641H180.729L183.186 74.2348H185.851L181.594 86.1541C181.396 86.7171 181.133 87.1993 180.805 87.6008C180.477 88.0068 180.076 88.316 179.601 88.5283C179.13 88.7452 178.567 88.8536 177.912 88.8536Z" fill="white"/>
<path d="M22.5373 27.1098H20.35V20.0219H22.6342C23.3217 20.0219 23.9101 20.1638 24.3992 20.4476C24.8884 20.729 25.2633 21.134 25.524 21.6623C25.7847 22.1884 25.9151 22.8183 25.9151 23.552C25.9151 24.2903 25.7836 24.9259 25.5206 25.4589C25.2575 25.9896 24.8745 26.398 24.3715 26.6841C23.8686 26.9679 23.2571 27.1098 22.5373 27.1098ZM21.2083 26.3484H22.4819C23.0679 26.3484 23.5536 26.2353 23.9389 26.0092C24.3243 25.7831 24.6115 25.4612 24.8007 25.0436C24.9899 24.626 25.0845 24.1288 25.0845 23.552C25.0845 22.9798 24.991 22.4872 24.8042 22.0742C24.6173 21.6589 24.3381 21.3405 23.9666 21.119C23.5952 20.8952 23.1326 20.7833 22.5788 20.7833H21.2083V26.3484ZM27.3548 27.1098V20.0219H31.6325V20.7833H28.2131V23.1782H31.411V23.9396H28.2131V26.3484H31.6879V27.1098H27.3548ZM33.1795 27.1098V20.0219H34.0378V26.3484H37.3326V27.1098H33.1795ZM39.5198 20.0219V27.1098H38.6615V20.0219H39.5198ZM41.5315 20.0219L43.6357 25.9884H43.7188L45.823 20.0219H46.7228L44.1202 27.1098H43.2342L40.6317 20.0219H41.5315ZM47.8268 27.1098V20.0219H52.1045V20.7833H48.6851V23.1782H51.883V23.9396H48.6851V26.3484H52.1599V27.1098H47.8268ZM53.6515 27.1098V20.0219H56.0464C56.6002 20.0219 57.0547 20.1165 57.41 20.3057C57.7654 20.4925 58.0284 20.7498 58.1991 21.0774C58.3699 21.4051 58.4552 21.7777 58.4552 22.1953C58.4552 22.6129 58.3699 22.9832 58.1991 23.3062C58.0284 23.6293 57.7665 23.8831 57.4135 24.0676C57.0605 24.2499 56.6094 24.3411 56.0603 24.3411H54.1222V23.5658H56.0326C56.411 23.5658 56.7156 23.5104 56.9463 23.3997C57.1793 23.2889 57.3477 23.1321 57.4516 22.929C57.5577 22.7237 57.6108 22.4791 57.6108 22.1953C57.6108 21.9115 57.5577 21.6635 57.4516 21.4512C57.3454 21.2389 57.1758 21.0751 56.9428 20.9598C56.7098 20.8421 56.4018 20.7833 56.0188 20.7833H54.5098V27.1098H53.6515ZM56.9878 23.9257L58.7321 27.1098H57.7354L56.0188 23.9257H56.9878ZM59.8854 27.1098V20.0219H64.1631V20.7833H60.7437V23.1782H63.9416V23.9396H60.7437V26.3484H64.2185V27.1098H59.8854ZM67.8974 27.1098H65.7101V20.0219H67.9943C68.6819 20.0219 69.2702 20.1638 69.7593 20.4476C70.2485 20.729 70.6234 21.134 70.8841 21.6623C71.1449 22.1884 71.2752 22.8183 71.2752 23.552C71.2752 24.2903 71.1437 24.9259 70.8807 25.4589C70.6176 25.9896 70.2346 26.398 69.7317 26.6841C69.2287 26.9679 68.6173 27.1098 67.8974 27.1098ZM66.5684 26.3484H67.842C68.4281 26.3484 68.9137 26.2353 69.299 26.0092C69.6844 25.7831 69.9716 25.4612 70.1608 25.0436C70.35 24.626 70.4446 24.1288 70.4446 23.552C70.4446 22.9798 70.3512 22.4872 70.1643 22.0742C69.9774 21.6589 69.6982 21.3405 69.3267 21.119C68.9553 20.8952 68.4927 20.7833 67.9389 20.7833H66.5684V26.3484ZM81.4364 23.5658C81.4364 24.3134 81.3014 24.9594 81.0315 25.5039C80.7615 26.0484 80.3912 26.4683 79.9205 26.7637C79.4498 27.059 78.9122 27.2067 78.3077 27.2067C77.7032 27.2067 77.1656 27.059 76.695 26.7637C76.2243 26.4683 75.854 26.0484 75.584 25.5039C75.3141 24.9594 75.1791 24.3134 75.1791 23.5658C75.1791 22.8183 75.3141 22.1722 75.584 21.6277C75.854 21.0832 76.2243 20.6633 76.695 20.368C77.1656 20.0726 77.7032 19.925 78.3077 19.925C78.9122 19.925 79.4498 20.0726 79.9205 20.368C80.3912 20.6633 80.7615 21.0832 81.0315 21.6277C81.3014 22.1722 81.4364 22.8183 81.4364 23.5658ZM80.6058 23.5658C80.6058 22.9521 80.5031 22.4341 80.2977 22.0119C80.0947 21.5897 79.819 21.2701 79.4706 21.0532C79.1245 20.8363 78.7369 20.7279 78.3077 20.7279C77.8786 20.7279 77.4898 20.8363 77.1414 21.0532C76.7953 21.2701 76.5196 21.5897 76.3143 22.0119C76.1112 22.4341 76.0097 22.9521 76.0097 23.5658C76.0097 24.1795 76.1112 24.6975 76.3143 25.1198C76.5196 25.542 76.7953 25.8615 77.1414 26.0784C77.4898 26.2953 77.8786 26.4037 78.3077 26.4037C78.7369 26.4037 79.1245 26.2953 79.4706 26.0784C79.819 25.8615 80.0947 25.542 80.2977 25.1198C80.5031 24.6975 80.6058 24.1795 80.6058 23.5658ZM88.5 20.0219V27.1098H87.6694L83.8071 21.5447H83.7379V27.1098H82.8796V20.0219H83.7102L87.5864 25.6008H87.6556V20.0219H88.5ZM92.5709 20.7833V20.0219H97.8868V20.7833H95.658V27.1098H94.7997V20.7833H92.5709ZM100.07 20.0219V27.1098H99.2115V20.0219H100.07ZM102.649 20.0219V27.1098H101.791V20.0219H102.649ZM104.37 20.0219H105.394L107.803 25.9054H107.886L110.295 20.0219H111.319V27.1098H110.516V21.7246H110.447L108.232 27.1098H107.457L105.242 21.7246H105.173V27.1098H104.37V20.0219ZM113.04 27.1098V20.0219H117.318V20.7833H113.899V23.1782H117.096V23.9396H113.899V26.3484H117.373V27.1098H113.04Z" fill="white"/>
</g>
<defs>
<clipPath id="clip0_1_62">
<rect y="0.866669" width="753.058" height="147" rx="16.2431" fill="white"/>
</clipPath>
</defs>
</svg>
