<svg width="77" height="78" viewBox="0 0 77 78" fill="none" xmlns="http://www.w3.org/2000/svg">
<g filter="url(#filter0_ddd_265_478)">
<rect x="21.0576" y="7.49237" width="35.2498" height="36.337" rx="2.50938" fill="#DDF9E4"/>
</g>
<path d="M40.0373 18.8507H32.0321C31.1081 18.8507 30.3591 19.5997 30.3591 20.5237V27.0154C30.3591 27.9393 31.1081 28.6883 32.0321 28.6883H40.0372C40.9612 28.6883 41.7102 27.9393 41.7102 27.0154V20.5237C41.7102 19.5997 40.9612 18.8507 40.0373 18.8507Z" stroke="#22A447" stroke-width="1.67292" stroke-linecap="round" stroke-linejoin="round"/>
<path d="M41.7094 24.3081C41.7094 23.3842 42.4583 22.6352 43.3823 22.6352H44.0433C44.487 22.6352 44.9125 22.8115 45.2263 23.1252L46.5165 24.4154C46.8302 24.7292 47.0065 25.1547 47.0065 25.5984V27.0162C47.0065 27.9401 46.2575 28.6891 45.3336 28.6891H43.3823C42.4583 28.6891 41.7094 27.9401 41.7094 27.0162V24.3081Z" stroke="#22A447" stroke-width="1.67292" stroke-linecap="round" stroke-linejoin="round"/>
<path d="M33.7646 32.471C34.8095 32.471 35.6565 31.624 35.6565 30.5792C35.6565 29.5343 34.8095 28.6873 33.7646 28.6873C32.7198 28.6873 31.8728 29.5343 31.8728 30.5792C31.8728 31.624 32.7198 32.471 33.7646 32.471Z" stroke="#22A447" stroke-width="1.67292" stroke-linecap="round" stroke-linejoin="round"/>
<path d="M43.6012 32.471C44.646 32.471 45.493 31.624 45.493 30.5792C45.493 29.5343 44.646 28.6873 43.6012 28.6873C42.5564 28.6873 41.7094 29.5343 41.7094 30.5792C41.7094 31.624 42.5564 32.471 43.6012 32.471Z" stroke="#22A447" stroke-width="1.67292" stroke-linecap="round" stroke-linejoin="round"/>
<defs>
<filter id="filter0_ddd_265_478" x="0.982573" y="0.800689" width="75.3998" height="76.4871" filterUnits="userSpaceOnUse" color-interpolation-filters="sRGB">
<feFlood flood-opacity="0" result="BackgroundImageFix"/>
<feColorMatrix in="SourceAlpha" type="matrix" values="0 0 0 0 0 0 0 0 0 0 0 0 0 0 0 0 0 0 127 0" result="hardAlpha"/>
<feOffset/>
<feGaussianBlur stdDeviation="0.41823"/>
<feColorMatrix type="matrix" values="0 0 0 0 0 0 0 0 0 0 0 0 0 0 0 0 0 0 0.04 0"/>
<feBlend mode="normal" in2="BackgroundImageFix" result="effect1_dropShadow_265_478"/>
<feColorMatrix in="SourceAlpha" type="matrix" values="0 0 0 0 0 0 0 0 0 0 0 0 0 0 0 0 0 0 127 0" result="hardAlpha"/>
<feOffset dy="1.67292"/>
<feGaussianBlur stdDeviation="2.50938"/>
<feColorMatrix type="matrix" values="0 0 0 0 0 0 0 0 0 0 0 0 0 0 0 0 0 0 0.04 0"/>
<feBlend mode="normal" in2="effect1_dropShadow_265_478" result="effect2_dropShadow_265_478"/>
<feColorMatrix in="SourceAlpha" type="matrix" values="0 0 0 0 0 0 0 0 0 0 0 0 0 0 0 0 0 0 127 0" result="hardAlpha"/>
<feOffset dy="13.3834"/>
<feGaussianBlur stdDeviation="10.0375"/>
<feColorMatrix type="matrix" values="0 0 0 0 0 0 0 0 0 0 0 0 0 0 0 0 0 0 0.06 0"/>
<feBlend mode="normal" in2="effect2_dropShadow_265_478" result="effect3_dropShadow_265_478"/>
<feBlend mode="normal" in="SourceGraphic" in2="effect3_dropShadow_265_478" result="shape"/>
</filter>
</defs>
</svg>
