<svg width="29" height="29" viewBox="0 0 29 29" fill="none" xmlns="http://www.w3.org/2000/svg">
<path d="M14.772 12.8011L8.1153 19.459L5.85572 18.5201L5.65393 18.7243L8.52976 20.6419L10.4486 23.5178L10.6516 23.3148L9.71393 21.0552L16.3706 14.3997L21.6003 21.9542L21.8541 21.7028L18.3656 12.4035L23.6823 7.08926C23.883 6.87502 23.9925 6.59112 23.9877 6.29759C23.9829 6.00405 23.8642 5.72388 23.6566 5.51629C23.449 5.3087 23.1689 5.18997 22.8753 5.18518C22.5818 5.18039 22.2979 5.28993 22.0836 5.49064L16.767 10.8061L7.47005 7.31885L7.2163 7.57139L14.772 12.8011ZM21.2849 25.468L16.0528 17.9123L12.3795 21.5856L13.3184 23.8452L10.097 27.0654L6.90093 22.272L2.10626 19.0747L5.32768 15.8533L7.58605 16.791L11.2594 13.1176L3.70368 7.88797L6.90093 4.69193L16.1991 8.17797L20.485 3.89201C20.7985 3.57099 21.1725 3.31537 21.5855 3.13996C21.9984 2.96456 22.4421 2.87286 22.8907 2.87018C23.3394 2.8675 23.7841 2.95389 24.1992 3.12435C24.6142 3.29481 24.9912 3.54594 25.3085 3.8632C25.6258 4.18045 25.8769 4.55752 26.0473 4.97254C26.2178 5.38757 26.3042 5.8323 26.3015 6.28096C26.2988 6.72962 26.2071 7.17328 26.0317 7.58624C25.8563 7.9992 25.6007 8.37324 25.2797 8.68668L20.9937 12.9726L24.481 22.272L21.2837 25.468H21.2849Z" fill="#70A6E8"/>
</svg>
