<svg width="77" height="78" viewBox="0 0 77 78" fill="none" xmlns="http://www.w3.org/2000/svg">
<g filter="url(#filter0_ddd_4_431)">
<rect x="21.0576" y="7.45541" width="35.2498" height="36.337" rx="2.50938" fill="#FFEADA"/>
<path d="M35.1377 32.7863C35.4883 32.7863 35.7725 32.5021 35.7725 32.1515C35.7725 31.8009 35.4883 31.5167 35.1377 31.5167C34.7871 31.5167 34.5029 31.8009 34.5029 32.1515C34.5029 32.5021 34.7871 32.7863 35.1377 32.7863Z" stroke="#F8964C" stroke-width="1.67292" stroke-linecap="round" stroke-linejoin="round"/>
<path d="M42.1192 32.7863C42.4698 32.7863 42.754 32.5021 42.754 32.1515C42.754 31.8009 42.4698 31.5167 42.1192 31.5167C41.7686 31.5167 41.4844 31.8009 41.4844 32.1515C41.4844 32.5021 41.7686 32.7863 42.1192 32.7863Z" stroke="#F8964C" stroke-width="1.67292" stroke-linecap="round" stroke-linejoin="round"/>
<path d="M30.0576 19.4554H32.5968L34.298 27.9553C34.3561 28.2476 34.5151 28.5101 34.7472 28.697C34.9793 28.8838 35.2697 28.9831 35.5676 28.9773H41.7378C42.0358 28.9831 42.3262 28.8838 42.5583 28.697C42.7904 28.5101 42.9494 28.2476 43.0074 27.9553L44.0231 22.6294H33.2316" stroke="#F8964C" stroke-width="1.67292" stroke-linecap="round" stroke-linejoin="round"/>
</g>
<defs>
<filter id="filter0_ddd_4_431" x="0.982573" y="0.763732" width="75.3998" height="76.4871" filterUnits="userSpaceOnUse" color-interpolation-filters="sRGB">
<feFlood flood-opacity="0" result="BackgroundImageFix"/>
<feColorMatrix in="SourceAlpha" type="matrix" values="0 0 0 0 0 0 0 0 0 0 0 0 0 0 0 0 0 0 127 0" result="hardAlpha"/>
<feOffset/>
<feGaussianBlur stdDeviation="0.41823"/>
<feColorMatrix type="matrix" values="0 0 0 0 0 0 0 0 0 0 0 0 0 0 0 0 0 0 0.04 0"/>
<feBlend mode="normal" in2="BackgroundImageFix" result="effect1_dropShadow_4_431"/>
<feColorMatrix in="SourceAlpha" type="matrix" values="0 0 0 0 0 0 0 0 0 0 0 0 0 0 0 0 0 0 127 0" result="hardAlpha"/>
<feOffset dy="1.67292"/>
<feGaussianBlur stdDeviation="2.50938"/>
<feColorMatrix type="matrix" values="0 0 0 0 0 0 0 0 0 0 0 0 0 0 0 0 0 0 0.04 0"/>
<feBlend mode="normal" in2="effect1_dropShadow_4_431" result="effect2_dropShadow_4_431"/>
<feColorMatrix in="SourceAlpha" type="matrix" values="0 0 0 0 0 0 0 0 0 0 0 0 0 0 0 0 0 0 127 0" result="hardAlpha"/>
<feOffset dy="13.3834"/>
<feGaussianBlur stdDeviation="10.0375"/>
<feColorMatrix type="matrix" values="0 0 0 0 0 0 0 0 0 0 0 0 0 0 0 0 0 0 0.06 0"/>
<feBlend mode="normal" in2="effect2_dropShadow_4_431" result="effect3_dropShadow_4_431"/>
<feBlend mode="normal" in="SourceGraphic" in2="effect3_dropShadow_4_431" result="shape"/>
</filter>
</defs>
</svg>
