<svg width="16" height="15" viewBox="0 0 16 15" fill="none" xmlns="http://www.w3.org/2000/svg">
<path d="M8.16992 9.375C9.20546 9.375 10.0449 8.53553 10.0449 7.5C10.0449 6.46447 9.20546 5.625 8.16992 5.625C7.13439 5.625 6.29492 6.46447 6.29492 7.5C6.29492 8.53553 7.13439 9.375 8.16992 9.375Z" stroke="black" stroke-width="1.5"/>
<path d="M9.27308 1.345C9.04371 1.25 8.75246 1.25 8.16996 1.25C7.58746 1.25 7.29621 1.25 7.06683 1.345C6.91507 1.40782 6.77718 1.49993 6.66104 1.61608C6.54489 1.73222 6.45278 1.87011 6.38996 2.02187C6.33246 2.16125 6.30933 2.32438 6.30058 2.56125C6.29651 2.73246 6.24909 2.89983 6.16274 3.04772C6.07638 3.19561 5.95393 3.31918 5.80683 3.40688C5.65734 3.49048 5.48908 3.5348 5.31779 3.53567C5.14651 3.53654 4.9778 3.49395 4.82746 3.41188C4.61746 3.30063 4.46558 3.23938 4.31496 3.21938C3.98641 3.17617 3.65415 3.26519 3.39121 3.46687C3.19496 3.61875 3.04871 3.87063 2.75746 4.375C2.46621 4.87937 2.31996 5.13125 2.28808 5.37812C2.26661 5.54091 2.27741 5.70633 2.31988 5.86493C2.36234 6.02354 2.43564 6.17223 2.53558 6.3025C2.62808 6.4225 2.75746 6.52312 2.95808 6.64937C3.25371 6.835 3.44371 7.15125 3.44371 7.5C3.44371 7.84875 3.25371 8.165 2.95808 8.35C2.75746 8.47687 2.62746 8.5775 2.53558 8.6975C2.43564 8.82777 2.36234 8.97646 2.31988 9.13507C2.27741 9.29367 2.26661 9.45909 2.28808 9.62188C2.32058 9.86813 2.46621 10.1206 2.75683 10.625C3.04871 11.1294 3.19433 11.3812 3.39121 11.5331C3.52148 11.6331 3.67017 11.7064 3.82878 11.7488C3.98738 11.7913 4.1528 11.8021 4.31558 11.7806C4.46558 11.7606 4.61746 11.6994 4.82746 11.5881C4.9778 11.506 5.14651 11.4635 5.31779 11.4643C5.48908 11.4652 5.65734 11.5095 5.80683 11.5931C6.10871 11.7681 6.28808 12.09 6.30058 12.4388C6.30933 12.6763 6.33183 12.8387 6.38996 12.9781C6.45278 13.1299 6.54489 13.2678 6.66104 13.3839C6.77718 13.5001 6.91507 13.5922 7.06683 13.655C7.29621 13.75 7.58746 13.75 8.16996 13.75C8.75246 13.75 9.04371 13.75 9.27308 13.655C9.42485 13.5922 9.56274 13.5001 9.67888 13.3839C9.79502 13.2678 9.88714 13.1299 9.94996 12.9781C10.0075 12.8387 10.0306 12.6763 10.0393 12.4388C10.0518 12.09 10.2312 11.7675 10.5331 11.5931C10.6826 11.5095 10.8508 11.4652 11.0221 11.4643C11.1934 11.4635 11.3621 11.506 11.5125 11.5881C11.7225 11.6994 11.8743 11.7606 12.0243 11.7806C12.1871 11.8021 12.3525 11.7913 12.5111 11.7488C12.6697 11.7064 12.8184 11.6331 12.9487 11.5331C13.1456 11.3819 13.2912 11.1294 13.5825 10.625C13.8737 10.1206 14.02 9.86875 14.0518 9.62188C14.0733 9.45909 14.0625 9.29367 14.02 9.13507C13.9776 8.97646 13.9043 8.82777 13.8043 8.6975C13.7118 8.5775 13.5825 8.47688 13.3818 8.35063C13.2355 8.2615 13.1142 8.13671 13.0293 7.98794C12.9444 7.83917 12.8986 7.67129 12.8962 7.5C12.8962 7.15125 13.0862 6.835 13.3818 6.65C13.5825 6.52313 13.7125 6.4225 13.8043 6.3025C13.9043 6.17223 13.9776 6.02354 14.02 5.86493C14.0625 5.70633 14.0733 5.54091 14.0518 5.37812C14.0193 5.13187 13.8737 4.87937 13.5831 4.375C13.2912 3.87063 13.1456 3.61875 12.9487 3.46687C12.8184 3.36693 12.6697 3.29363 12.5111 3.25117C12.3525 3.2087 12.1871 3.1979 12.0243 3.21938C11.8743 3.23938 11.7225 3.30063 11.5118 3.41188C11.3616 3.49384 11.193 3.53637 11.0218 3.5355C10.8507 3.53462 10.6825 3.49037 10.5331 3.40688C10.386 3.31918 10.2635 3.19561 10.1772 3.04772C10.0908 2.89983 10.0434 2.73246 10.0393 2.56125C10.0306 2.32375 10.0081 2.16125 9.94996 2.02187C9.88714 1.87011 9.79502 1.73222 9.67888 1.61608C9.56274 1.49993 9.42485 1.40782 9.27308 1.345Z" stroke="black" stroke-width="1.5"/>
</svg>
