<svg width="23" height="24" viewBox="0 0 23 24" fill="none" xmlns="http://www.w3.org/2000/svg">
<path d="M20.7764 17.0538L16.7109 12.9813V9.96173C16.7114 9.86996 16.6938 9.77898 16.6591 9.69402C16.6244 9.60906 16.5733 9.53178 16.5086 9.46662L9.53517 2.49314C9.47034 2.42778 9.39321 2.3759 9.30824 2.3405C9.22326 2.30509 9.13211 2.28687 9.04005 2.28687C8.94799 2.28687 8.85685 2.30509 8.77187 2.3405C8.68689 2.3759 8.60976 2.42778 8.54493 2.49314L2.2688 8.76927C2.20344 8.8341 2.15156 8.91122 2.11616 8.9962C2.08076 9.08118 2.06253 9.17233 2.06253 9.26439C2.06253 9.35644 2.08076 9.44759 2.11616 9.53257C2.15156 9.61755 2.20344 9.69468 2.2688 9.7595L9.24228 16.733C9.30744 16.7976 9.38472 16.8487 9.46968 16.8835C9.55465 16.9182 9.64562 16.9357 9.7374 16.9352H12.7639L16.8294 21.0077C17.3528 21.5311 18.0627 21.8252 18.8029 21.8252C19.5431 21.8252 20.253 21.5311 20.7764 21.0077C21.2998 20.4843 21.5939 19.7744 21.5939 19.0342C21.5939 18.294 21.2998 17.5841 20.7764 17.0607V17.0538ZM4.85596 8.1556L6.45289 9.7595L7.44313 8.76927L5.83923 7.17234L6.94801 6.06356L9.93963 9.06216L10.9299 8.07192L7.93127 5.0803L9.04005 3.97152L13.6356 8.56704L8.3427 13.8599L3.74718 9.26439L4.85596 8.1556ZM19.7862 20.0105C19.5249 20.2703 19.1714 20.4161 18.8029 20.4161C18.4345 20.4161 18.081 20.2703 17.8197 20.0105L13.5449 15.7427C13.3963 15.6406 13.2275 15.5716 13.0498 15.5405H10.0233L9.32596 14.8432L14.6188 9.5503L15.3162 10.2476V13.2741C15.317 13.4571 15.3896 13.6324 15.5184 13.7623L19.7862 18.044C20.0459 18.3053 20.1917 18.6588 20.1917 19.0273C20.1917 19.3957 20.0459 19.7492 19.7862 20.0105Z" fill="url(#paint0_linear_1_1297)"/>
<path d="M19.7862 20.0105C19.5249 20.2703 19.1714 20.4161 18.8029 20.4161C18.4345 20.4161 18.081 20.2703 17.8197 20.0105L13.5449 15.7427C13.3963 15.6406 13.2275 15.5716 13.0498 15.5405H10.0233L9.32596 14.8432L14.6188 9.5503L15.3162 10.2476V13.2741C15.317 13.4571 15.3896 13.6324 15.5184 13.7623L19.7862 18.044C20.0459 18.3053 20.1917 18.6588 20.1917 19.0273C20.1917 19.3957 20.0459 19.7492 19.7862 20.0105Z" fill="url(#paint1_linear_1_1297)"/>
<defs>
<linearGradient id="paint0_linear_1_1297" x1="11.8282" y1="2.28687" x2="11.8282" y2="21.8252" gradientUnits="userSpaceOnUse">
<stop stop-color="#FFA764"/>
<stop offset="1" stop-color="#F17F29"/>
</linearGradient>
<linearGradient id="paint1_linear_1_1297" x1="11.8282" y1="2.28687" x2="11.8282" y2="21.8252" gradientUnits="userSpaceOnUse">
<stop stop-color="#FFA764"/>
<stop offset="1" stop-color="#F17F29"/>
</linearGradient>
</defs>
</svg>
